<mxfile host="app.diagrams.net" modified="2022-06-13T14:24:24.229Z" agent="5.0 (Windows NT 10.0; Win64; x64) AppleWebKit/537.36 (KHTML, like Gecko) Chrome/102.0.5005.63 Safari/537.36" etag="SF5EGlo8foDF5OnvmM0H" version="20.0.1" type="github">
  <diagram id="IgIcTEom2VTuXE_4CX7P" name="Page-1">
    <mxGraphModel dx="966" dy="508" grid="1" gridSize="10" guides="1" tooltips="1" connect="1" arrows="1" fold="1" page="1" pageScale="1" pageWidth="827" pageHeight="1169" math="0" shadow="0">
      <root>
        <mxCell id="0" />
        <mxCell id="1" parent="0" />
        <mxCell id="pf-OsfsRtC7pU7ZfOex2-2" value="INTERNET" style="rounded=0;whiteSpace=wrap;html=1;align=left;verticalAlign=top;fontStyle=1;labelBackgroundColor=none;fillColor=#dae8fc;strokeColor=#6c8ebf;" vertex="1" parent="1">
          <mxGeometry x="19" y="30" width="790" height="110" as="geometry" />
        </mxCell>
        <mxCell id="pf-OsfsRtC7pU7ZfOex2-3" value="DMZ" style="rounded=0;whiteSpace=wrap;html=1;align=left;verticalAlign=top;fontStyle=1;fillColor=#fff2cc;strokeColor=#d6b656;" vertex="1" parent="1">
          <mxGeometry x="20" y="160" width="789" height="110" as="geometry" />
        </mxCell>
        <mxCell id="pf-OsfsRtC7pU7ZfOex2-4" value="RED LAN BCBA" style="rounded=0;whiteSpace=wrap;html=1;fontStyle=1;align=left;verticalAlign=top;fillColor=#d5e8d4;strokeColor=#82b366;" vertex="1" parent="1">
          <mxGeometry x="19" y="300" width="790" height="460" as="geometry" />
        </mxCell>
        <mxCell id="pf-OsfsRtC7pU7ZfOex2-7" value="On Premise" style="sketch=0;aspect=fixed;html=1;points=[];align=center;image;fontSize=12;image=img/lib/mscae/Azure_Home.svg;labelBackgroundColor=none;" vertex="1" parent="1">
          <mxGeometry x="741.98" y="320" width="51.25" height="41" as="geometry" />
        </mxCell>
        <mxCell id="pf-OsfsRtC7pU7ZfOex2-8" value="Cloud" style="sketch=0;aspect=fixed;pointerEvents=1;shadow=0;dashed=0;html=1;strokeColor=none;labelPosition=center;verticalLabelPosition=bottom;verticalAlign=top;align=center;fillColor=#00188D;shape=mxgraph.mscae.enterprise.internet" vertex="1" parent="1">
          <mxGeometry x="736.78" y="40" width="56.45" height="35" as="geometry" />
        </mxCell>
        <mxCell id="pf-OsfsRtC7pU7ZfOex2-9" value="Firewall&lt;br&gt;" style="sketch=0;aspect=fixed;pointerEvents=1;shadow=0;dashed=0;html=1;strokeColor=none;labelPosition=center;verticalLabelPosition=bottom;verticalAlign=top;align=center;fillColor=#00188D;shape=mxgraph.mscae.enterprise.firewall" vertex="1" parent="1">
          <mxGeometry x="740" y="170" width="50" height="44" as="geometry" />
        </mxCell>
        <mxCell id="pf-OsfsRtC7pU7ZfOex2-24" style="edgeStyle=orthogonalEdgeStyle;rounded=0;orthogonalLoop=1;jettySize=auto;html=1;exitX=0.5;exitY=1;exitDx=0;exitDy=0;entryX=0.25;entryY=0;entryDx=0;entryDy=0;fontSize=12;startArrow=block;startFill=1;sourcePerimeterSpacing=3;targetPerimeterSpacing=3;strokeColor=#000099;strokeWidth=3;" edge="1" parent="1" source="pf-OsfsRtC7pU7ZfOex2-11" target="pf-OsfsRtC7pU7ZfOex2-13">
          <mxGeometry relative="1" as="geometry" />
        </mxCell>
        <mxCell id="pf-OsfsRtC7pU7ZfOex2-11" value="Chattigo" style="rounded=1;whiteSpace=wrap;html=1;fillColor=#76608a;fontColor=#ffffff;strokeColor=#432D57;" vertex="1" parent="1">
          <mxGeometry x="122" y="55" width="90" height="60" as="geometry" />
        </mxCell>
        <mxCell id="pf-OsfsRtC7pU7ZfOex2-12" value="OCASA" style="rounded=1;whiteSpace=wrap;html=1;fillColor=#76608a;fontColor=#ffffff;strokeColor=#432D57;" vertex="1" parent="1">
          <mxGeometry x="604" y="55" width="90" height="60" as="geometry" />
        </mxCell>
        <mxCell id="pf-OsfsRtC7pU7ZfOex2-25" style="edgeStyle=orthogonalEdgeStyle;rounded=0;orthogonalLoop=1;jettySize=auto;html=1;exitX=1;exitY=0.5;exitDx=0;exitDy=0;entryX=0;entryY=0.5;entryDx=0;entryDy=0;fontSize=12;startArrow=block;startFill=1;sourcePerimeterSpacing=3;targetPerimeterSpacing=3;strokeColor=#000099;strokeWidth=3;" edge="1" parent="1" source="pf-OsfsRtC7pU7ZfOex2-13" target="pf-OsfsRtC7pU7ZfOex2-16">
          <mxGeometry relative="1" as="geometry" />
        </mxCell>
        <mxCell id="pf-OsfsRtC7pU7ZfOex2-13" value="Load Balancer - NetScaler" style="rounded=1;whiteSpace=wrap;html=1;align=left;verticalAlign=top;fillColor=#6d8764;fontColor=#ffffff;strokeColor=#3A5431;" vertex="1" parent="1">
          <mxGeometry x="100" y="170" width="270" height="70" as="geometry" />
        </mxCell>
        <mxCell id="pf-OsfsRtC7pU7ZfOex2-14" value="Sitio Primario" style="rounded=1;whiteSpace=wrap;html=1;fillColor=#f0a30a;fontColor=#000000;strokeColor=#BD7000;" vertex="1" parent="1">
          <mxGeometry x="130" y="200" width="100" height="30" as="geometry" />
        </mxCell>
        <mxCell id="pf-OsfsRtC7pU7ZfOex2-15" value="Sitio Secundario" style="rounded=1;whiteSpace=wrap;html=1;fillColor=#f0a30a;fontColor=#000000;strokeColor=#BD7000;" vertex="1" parent="1">
          <mxGeometry x="250" y="200" width="100" height="30" as="geometry" />
        </mxCell>
        <mxCell id="pf-OsfsRtC7pU7ZfOex2-26" style="edgeStyle=orthogonalEdgeStyle;rounded=0;orthogonalLoop=1;jettySize=auto;html=1;exitX=1;exitY=0.5;exitDx=0;exitDy=0;entryX=1;entryY=0.5;entryDx=0;entryDy=0;fontSize=12;startArrow=block;startFill=1;sourcePerimeterSpacing=3;targetPerimeterSpacing=3;strokeColor=#000099;strokeWidth=3;" edge="1" parent="1" source="pf-OsfsRtC7pU7ZfOex2-16" target="pf-OsfsRtC7pU7ZfOex2-18">
          <mxGeometry relative="1" as="geometry" />
        </mxCell>
        <mxCell id="pf-OsfsRtC7pU7ZfOex2-16" value="APACHE WAF" style="rounded=1;whiteSpace=wrap;html=1;fillColor=#6d8764;fontColor=#ffffff;strokeColor=#3A5431;" vertex="1" parent="1">
          <mxGeometry x="440" y="170" width="150" height="70" as="geometry" />
        </mxCell>
        <mxCell id="pf-OsfsRtC7pU7ZfOex2-27" style="edgeStyle=orthogonalEdgeStyle;rounded=0;orthogonalLoop=1;jettySize=auto;html=1;exitX=0;exitY=0.5;exitDx=0;exitDy=0;entryX=0;entryY=0.5;entryDx=0;entryDy=0;fontSize=12;startArrow=block;startFill=1;sourcePerimeterSpacing=3;targetPerimeterSpacing=3;strokeColor=#000099;strokeWidth=3;" edge="1" parent="1" source="pf-OsfsRtC7pU7ZfOex2-18" target="pf-OsfsRtC7pU7ZfOex2-19">
          <mxGeometry relative="1" as="geometry">
            <Array as="points">
              <mxPoint x="330" y="284" />
              <mxPoint x="330" y="406" />
            </Array>
          </mxGeometry>
        </mxCell>
        <mxCell id="pf-OsfsRtC7pU7ZfOex2-18" value="F5 LOAD BALANCER" style="rounded=1;whiteSpace=wrap;html=1;fillColor=#0050ef;fontColor=#ffffff;strokeColor=#001DBC;" vertex="1" parent="1">
          <mxGeometry x="416" y="248" width="120" height="72" as="geometry" />
        </mxCell>
        <mxCell id="pf-OsfsRtC7pU7ZfOex2-19" value="CIC" style="rounded=1;whiteSpace=wrap;html=1;align=left;verticalAlign=top;fontSize=16;fontStyle=1;fillColor=#6666FF;strokeColor=#0000CC;fontColor=#000000;" vertex="1" parent="1">
          <mxGeometry x="416" y="361" width="230" height="89" as="geometry" />
        </mxCell>
        <mxCell id="pf-OsfsRtC7pU7ZfOex2-20" value="" style="sketch=0;aspect=fixed;html=1;points=[];align=center;image;fontSize=12;image=img/lib/mscae/OpenShift.svg;" vertex="1" parent="1">
          <mxGeometry x="436" y="386" width="50" height="46" as="geometry" />
        </mxCell>
        <mxCell id="pf-OsfsRtC7pU7ZfOex2-23" style="edgeStyle=orthogonalEdgeStyle;rounded=0;orthogonalLoop=1;jettySize=auto;html=1;exitX=1;exitY=0.5;exitDx=0;exitDy=0;entryX=0.75;entryY=1;entryDx=0;entryDy=0;fontSize=12;targetPerimeterSpacing=3;sourcePerimeterSpacing=3;startArrow=block;startFill=1;strokeWidth=3;strokeColor=#000099;" edge="1" parent="1" source="pf-OsfsRtC7pU7ZfOex2-21" target="pf-OsfsRtC7pU7ZfOex2-12">
          <mxGeometry relative="1" as="geometry" />
        </mxCell>
        <mxCell id="pf-OsfsRtC7pU7ZfOex2-21" value="App Delivery de Tarjetas" style="rounded=1;whiteSpace=wrap;html=1;fontSize=12;fillColor=#647687;fontColor=#ffffff;strokeColor=#314354;" vertex="1" parent="1">
          <mxGeometry x="506" y="379" width="120" height="60" as="geometry" />
        </mxCell>
        <mxCell id="pf-OsfsRtC7pU7ZfOex2-28" value="Pasos de Proceso" style="rounded=0;whiteSpace=wrap;html=1;labelBackgroundColor=none;fontSize=12;fillColor=#fff2cc;strokeColor=#d6b656;align=center;verticalAlign=top;fontStyle=1" vertex="1" parent="1">
          <mxGeometry x="40" y="480" width="230" height="260" as="geometry" />
        </mxCell>
        <mxCell id="pf-OsfsRtC7pU7ZfOex2-29" value="Referencias" style="rounded=0;whiteSpace=wrap;html=1;labelBackgroundColor=none;fontSize=12;fillColor=#fff2cc;strokeColor=#d6b656;align=center;verticalAlign=top;fontStyle=1" vertex="1" parent="1">
          <mxGeometry x="299" y="480" width="230" height="260" as="geometry" />
        </mxCell>
        <mxCell id="pf-OsfsRtC7pU7ZfOex2-30" value="Notas" style="rounded=0;whiteSpace=wrap;html=1;labelBackgroundColor=none;fontSize=12;fillColor=#fff2cc;strokeColor=#d6b656;align=center;verticalAlign=top;fontStyle=1" vertex="1" parent="1">
          <mxGeometry x="563.23" y="480" width="230" height="260" as="geometry" />
        </mxCell>
      </root>
    </mxGraphModel>
  </diagram>
</mxfile>
